<svg width="50" height="50" viewBox="0 0 50 50" fill="none" xmlns="http://www.w3.org/2000/svg">
<path d="M25.5273 5.78125C26.0997 4.31299 27.1005 3.05093 28.3998 2.15919C29.6991 1.26746 31.2367 0.787332 32.8125 0.78125C33.2269 0.78125 33.6243 0.94587 33.9174 1.2389C34.2104 1.53192 34.375 1.92935 34.375 2.34375C34.375 2.75815 34.2104 3.15558 33.9174 3.4486C33.6243 3.74163 33.2269 3.90625 32.8125 3.90625C31.8653 3.90919 30.941 4.19784 30.1605 4.73447C29.3799 5.27109 28.7794 6.03072 28.4375 6.91406C28.3228 7.20885 28.1214 7.4619 27.8599 7.63975C27.5983 7.81761 27.2889 7.9119 26.9727 7.91016C26.7864 7.90615 26.6019 7.8732 26.4258 7.8125C26.2328 7.739 26.0562 7.62797 25.9064 7.48581C25.7565 7.34365 25.6364 7.1732 25.5528 6.98431C25.4693 6.79541 25.424 6.59183 25.4196 6.38533C25.4152 6.17883 25.4519 5.97351 25.5273 5.78125ZM43.3594 30.4297C42.1107 29.8025 41.0531 28.8519 40.2968 27.677C39.5404 26.502 39.1131 25.1457 39.0592 23.7494C39.0054 22.3532 39.327 20.968 39.9906 19.7383C40.6541 18.5085 41.6354 17.4793 42.832 16.7578C43.0178 16.64 43.1772 16.4852 43.3005 16.303C43.4238 16.1208 43.5082 15.9152 43.5485 15.699C43.5888 15.4828 43.5841 15.2606 43.5348 15.0462C43.4855 14.8319 43.3925 14.63 43.2617 14.4531C41.1386 11.7481 38.0491 9.97206 34.6432 9.49851C31.2373 9.02496 27.7805 9.89087 25 11.9141C23.0186 10.4728 20.6771 9.60774 18.2346 9.41457C15.7921 9.22139 13.3438 9.70764 11.1604 10.8195C8.97712 11.9314 7.14392 13.6256 5.86364 15.7146C4.58337 17.8036 3.90592 20.2061 3.90625 22.6562C3.95326 27.8074 5.50817 32.832 8.37891 37.1094C11.1914 41.2695 14.7656 43.75 17.9688 43.75H32.0312C36.4258 43.75 41.3867 39.082 44.1211 32.4219C44.275 32.0556 44.2818 31.6441 44.1399 31.273C43.998 30.9019 43.7184 30.5998 43.3594 30.4297Z" fill="black"/>
</svg>
