<svg width="50" height="50" viewBox="0 0 50 50" fill="none" xmlns="http://www.w3.org/2000/svg">
<path d="M25 44.5312C21.7878 44.5319 18.6249 43.7403 15.7918 42.2266C12.9586 40.7128 10.5425 38.5236 8.75751 35.853C6.97256 33.1823 5.87387 30.1126 5.55877 26.9159C5.24367 23.7191 5.72189 20.494 6.95107 17.5263C8.18024 14.5585 10.1224 11.9397 12.6055 9.90196C15.0887 7.86418 18.0361 6.4703 21.1866 5.84381C24.3372 5.21732 27.5936 5.37757 30.6674 6.31036C33.7412 7.24314 36.5375 8.91967 38.8086 11.1914C39.0271 11.4091 39.2005 11.6679 39.3188 11.9528C39.437 12.2377 39.4979 12.5431 39.4979 12.8516C39.4979 13.16 39.437 13.4655 39.3188 13.7504C39.2005 14.0352 39.0271 14.294 38.8086 14.5117C38.3639 14.9436 37.7684 15.1852 37.1484 15.1852C36.5285 15.1852 35.933 14.9436 35.4883 14.5117C34.1167 13.1259 32.4829 12.027 30.6821 11.2793C28.8814 10.5315 26.9498 10.1497 25 10.1563C22.1648 10.1582 19.3894 10.9722 17.0022 12.5018C14.615 14.0314 12.7158 16.2127 11.5292 18.7876C10.3426 21.3626 9.91828 24.2235 10.3064 27.0321C10.6946 29.8406 11.8789 32.4792 13.7194 34.6359C15.5599 36.7925 17.9795 38.3769 20.6921 39.2017C23.4047 40.0265 26.2968 40.0572 29.0263 39.2902C31.7558 38.5232 34.2085 36.9905 36.0943 34.8734C37.9802 32.7563 39.2203 30.1434 39.668 27.3438H25C24.3784 27.3438 23.7823 27.0968 23.3427 26.6573C22.9032 26.2177 22.6562 25.6216 22.6562 25C22.6562 24.3784 22.9032 23.7823 23.3427 23.3427C23.7823 22.9032 24.3784 22.6563 25 22.6563H42.1875C42.8091 22.6563 43.4052 22.9032 43.8448 23.3427C44.2843 23.7823 44.5312 24.3784 44.5312 25C44.5209 30.1768 42.4599 35.1387 38.7993 38.7993C35.1387 42.4599 30.1768 44.5209 25 44.5312Z" fill="black"/>
</svg>
