<svg width="44" height="44" viewBox="0 0 44 44" fill="none" xmlns="http://www.w3.org/2000/svg">
<path d="M9.375 3.125V9.375H3.125V3.125H9.375ZM12.5 40.625V34.375C12.5 33.5462 12.1708 32.7513 11.5847 32.1653C10.9987 31.5792 10.2038 31.25 9.375 31.25H3.125C2.2962 31.25 1.50134 31.5792 0.915291 32.1653C0.32924 32.7513 0 33.5462 0 34.375V40.625C0 41.4538 0.32924 42.2487 0.915291 42.8347C1.50134 43.4208 2.2962 43.75 3.125 43.75H9.375C10.2038 43.75 10.9987 43.4208 11.5847 42.8347C12.1708 42.2487 12.5 41.4538 12.5 40.625ZM12.5 25V18.75C12.5 17.9212 12.1708 17.1263 11.5847 16.5403C10.9987 15.9542 10.2038 15.625 9.375 15.625H3.125C2.2962 15.625 1.50134 15.9542 0.915291 16.5403C0.32924 17.1263 0 17.9212 0 18.75V25C0 25.8288 0.32924 26.6237 0.915291 27.2097C1.50134 27.7958 2.2962 28.125 3.125 28.125H9.375C10.2038 28.125 10.9987 27.7958 11.5847 27.2097C12.1708 26.6237 12.5 25.8288 12.5 25ZM12.5 9.375V3.125C12.5 2.2962 12.1708 1.50134 11.5847 0.915291C10.9987 0.32924 10.2038 0 9.375 0H3.125C2.2962 0 1.50134 0.32924 0.915291 0.915291C0.32924 1.50134 0 2.2962 0 3.125V9.375C0 10.2038 0.32924 10.9987 0.915291 11.5847C1.50134 12.1708 2.2962 12.5 3.125 12.5H9.375C10.2038 12.5 10.9987 12.1708 11.5847 11.5847C12.1708 10.9987 12.5 10.2038 12.5 9.375ZM28.125 40.625V34.375C28.125 33.5462 27.7958 32.7513 27.2097 32.1653C26.6237 31.5792 25.8288 31.25 25 31.25H18.75C17.9212 31.25 17.1263 31.5792 16.5403 32.1653C15.9542 32.7513 15.625 33.5462 15.625 34.375V40.625C15.625 41.4538 15.9542 42.2487 16.5403 42.8347C17.1263 43.4208 17.9212 43.75 18.75 43.75H25C25.8288 43.75 26.6237 43.4208 27.2097 42.8347C27.7958 42.2487 28.125 41.4538 28.125 40.625ZM28.125 25V18.75C28.125 17.9212 27.7958 17.1263 27.2097 16.5403C26.6237 15.9542 25.8288 15.625 25 15.625H18.75C17.9212 15.625 17.1263 15.9542 16.5403 16.5403C15.9542 17.1263 15.625 17.9212 15.625 18.75V25C15.625 25.8288 15.9542 26.6237 16.5403 27.2097C17.1263 27.7958 17.9212 28.125 18.75 28.125H25C25.8288 28.125 26.6237 27.7958 27.2097 27.2097C27.7958 26.6237 28.125 25.8288 28.125 25ZM28.125 9.375V3.125C28.125 2.2962 27.7958 1.50134 27.2097 0.915291C26.6237 0.32924 25.8288 0 25 0H18.75C17.9212 0 17.1263 0.32924 16.5403 0.915291C15.9542 1.50134 15.625 2.2962 15.625 3.125V9.375C15.625 10.2038 15.9542 10.9987 16.5403 11.5847C17.1263 12.1708 17.9212 12.5 18.75 12.5H25C25.8288 12.5 26.6237 12.1708 27.2097 11.5847C27.7958 10.9987 28.125 10.2038 28.125 9.375ZM25 3.125V9.375H18.75V3.125H25ZM40.625 3.125V9.375H34.375V3.125H40.625ZM9.375 18.75V25H3.125V18.75H9.375ZM25 18.75V25H18.75V18.75H25ZM40.625 18.75H34.375V25H40.625V18.75ZM9.375 34.375V40.625H3.125V34.375H9.375ZM25 34.375V40.625H18.75V34.375H25ZM40.625 34.375V40.625H34.375V34.375H40.625ZM34.375 0C33.5462 0 32.7513 0.32924 32.1653 0.915291C31.5792 1.50134 31.25 2.2962 31.25 3.125V9.375C31.25 10.2038 31.5792 10.9987 32.1653 11.5847C32.7513 12.1708 33.5462 12.5 34.375 12.5H40.625C41.4538 12.5 42.2487 12.1708 42.8347 11.5847C43.4208 10.9987 43.75 10.2038 43.75 9.375V3.125C43.75 2.2962 43.4208 1.50134 42.8347 0.915291C42.2487 0.32924 41.4538 0 40.625 0H34.375ZM31.25 18.75C31.25 17.9212 31.5792 17.1263 32.1653 16.5403C32.7513 15.9542 33.5462 15.625 34.375 15.625H40.625C41.4538 15.625 42.2487 15.9542 42.8347 16.5403C43.4208 17.1263 43.75 17.9212 43.75 18.75V25C43.75 25.8288 43.4208 26.6237 42.8347 27.2097C42.2487 27.7958 41.4538 28.125 40.625 28.125H34.375C33.5462 28.125 32.7513 27.7958 32.1653 27.2097C31.5792 26.6237 31.25 25.8288 31.25 25V18.75ZM34.375 31.25C33.5462 31.25 32.7513 31.5792 32.1653 32.1653C31.5792 32.7513 31.25 33.5462 31.25 34.375V40.625C31.25 41.4538 31.5792 42.2487 32.1653 42.8347C32.7513 43.4208 33.5462 43.75 34.375 43.75H40.625C41.4538 43.75 42.2487 43.4208 42.8347 42.8347C43.4208 42.2487 43.75 41.4538 43.75 40.625V34.375C43.75 33.5462 43.4208 32.7513 42.8347 32.1653C42.2487 31.5792 41.4538 31.25 40.625 31.25H34.375Z" fill="black"/>
</svg>
