<svg width="38" height="44" viewBox="0 0 38 44" fill="none" xmlns="http://www.w3.org/2000/svg">
<path d="M25.25 0.083374H12.75V4.25004H25.25V0.083374ZM16.9167 27.1667H21.0833V14.6667H16.9167V27.1667ZM33.6458 13.3959L36.6042 10.4375C35.7083 9.37504 34.7292 8.37504 33.6667 7.50004L30.7083 10.4584C27.3903 7.78822 23.259 6.33273 19 6.33337C8.64583 6.33337 0.25 14.7292 0.25 25.0834C0.25 35.4375 8.625 43.8334 19 43.8334C22.5298 43.8353 25.9884 42.8401 28.9774 40.9625C31.9663 39.0848 34.3642 36.4011 35.8947 33.2203C37.4252 30.0396 38.0261 26.4912 37.6282 22.9839C37.2304 19.4766 35.8499 16.153 33.6458 13.3959ZM19 39.6667C10.9375 39.6667 4.41667 33.1459 4.41667 25.0834C4.41667 17.0209 10.9375 10.5 19 10.5C27.0625 10.5 33.5833 17.0209 33.5833 25.0834C33.5833 33.1459 27.0625 39.6667 19 39.6667Z" fill="black"/>
</svg>
