<svg width="50" height="50" viewBox="0 0 50 50" fill="none" xmlns="http://www.w3.org/2000/svg">
<mask id="mask0_6_20" style="mask-type:luminance" maskUnits="userSpaceOnUse" x="2" y="2" width="46" height="46">
<path d="M38.2146 15.8031C39.543 17.7059 40.4419 19.8747 40.849 22.1593H45.8333V27.8406H40.849C40.4419 30.1252 39.543 32.294 38.2146 34.1968L41.7406 37.7229L37.7229 41.7406L34.1969 38.2145C32.2941 39.5429 30.1253 40.4418 27.8406 40.8489V45.8333H22.1594V40.8489C19.8747 40.4418 17.7059 39.5429 15.8031 38.2145L12.2771 41.7406L8.25937 37.7229L11.7854 34.1968C10.457 32.294 9.55814 30.1252 9.15104 27.8406H4.16666V22.1593H9.15104C9.55814 19.8747 10.457 17.7059 11.7854 15.8031L8.25937 12.277L12.2771 8.25933L15.8031 11.7854C17.7059 10.457 19.8747 9.5581 22.1594 9.151V4.16663H27.8406V9.151C30.1253 9.5581 32.2941 10.457 34.1969 11.7854L37.7229 8.25933L41.7406 12.277L38.2146 15.8031Z" fill="white" stroke="white" stroke-width="4.16667" stroke-linejoin="round"/>
<path d="M25 30.2083C26.3813 30.2083 27.7061 29.6596 28.6828 28.6828C29.6596 27.7061 30.2083 26.3813 30.2083 25C30.2083 23.6186 29.6596 22.2939 28.6828 21.3171C27.7061 20.3404 26.3813 19.7916 25 19.7916C23.6187 19.7916 22.2939 20.3404 21.3171 21.3171C20.3404 22.2939 19.7917 23.6186 19.7917 25C19.7917 26.3813 20.3404 27.7061 21.3171 28.6828C22.2939 29.6596 23.6187 30.2083 25 30.2083Z" fill="black" stroke="black" stroke-width="4.16667" stroke-linejoin="round"/>
</mask>
<g mask="url(#mask0_6_20)">
<path d="M0 0H50V50H0V0Z" fill="black"/>
</g>
</svg>
