<svg width="50" height="50" viewBox="0 0 50 50" fill="none" xmlns="http://www.w3.org/2000/svg">
<path d="M25 33.3334C28.4812 33.3334 31.25 30.5605 31.25 27.0834C31.25 23.6063 28.4812 20.8334 25 20.8334C21.5187 20.8334 18.75 23.6063 18.75 27.0834C18.75 30.5605 21.5187 33.3334 25 33.3334Z" fill="black"/>
<path d="M43.3687 23.3041C42.8778 20.9049 41.9186 18.626 40.5458 16.5979C39.197 14.6026 37.4786 12.8842 35.4833 11.5354C33.455 10.1631 31.1762 9.20391 28.7771 8.71246C27.5169 8.45689 26.2338 8.33124 24.9479 8.33746V4.16663L16.6667 10.4166L24.9479 16.6666V12.5041C25.9563 12.5 26.9646 12.5958 27.9375 12.7958C29.8021 13.1779 31.5733 13.9233 33.15 14.9895C34.7049 16.038 36.0432 17.3763 37.0917 18.9312C38.7194 21.3379 39.5874 24.1778 39.5833 27.0833C39.583 29.033 39.1934 30.9631 38.4375 32.7604C38.0699 33.6261 37.6206 34.4548 37.0958 35.2354C36.569 36.0112 35.9705 36.7359 35.3083 37.4C33.2917 39.4128 30.7315 40.7936 27.9417 41.3729C26.0015 41.7646 24.0026 41.7646 22.0625 41.3729C20.197 40.9904 18.4251 40.2443 16.8479 39.177C15.2948 38.1296 13.9579 36.7927 12.9104 35.2395C11.2845 32.8303 10.4161 29.9899 10.4167 27.0833H6.25C6.25222 30.8202 7.36851 34.4715 9.45625 37.5708C10.8059 39.5627 12.5226 41.2794 14.5146 42.6291C17.6096 44.7239 21.2627 45.8402 25 45.8333C26.2693 45.8332 27.5354 45.7055 28.7792 45.452C31.1765 44.957 33.454 43.9981 35.4833 42.6291C36.4797 41.9577 37.4084 41.1909 38.2563 40.3395C39.1052 39.4882 39.8725 38.5592 40.5479 37.5645C42.6409 34.4703 43.7564 30.8189 43.75 27.0833C43.7499 25.814 43.6222 24.5479 43.3687 23.3041Z" fill="black"/>
</svg>
