<svg width="38" height="30" viewBox="0 0 38 30" fill="none" xmlns="http://www.w3.org/2000/svg">
<path d="M2.08334 8.33334C1.49306 8.33334 0.997924 8.13334 0.597924 7.73334C0.197924 7.33334 -0.00138168 6.8389 7.20877e-06 6.25001V2.08334C7.20877e-06 1.49306 0.200007 0.997924 0.600007 0.597924C1.00001 0.197924 1.49445 -0.00138168 2.08334 7.20875e-06H6.25001C6.84028 7.20875e-06 7.33542 0.200007 7.73542 0.600007C8.13542 1.00001 8.33473 1.49445 8.33334 2.08334V6.25001C8.33334 6.84028 8.13334 7.33542 7.73334 7.73542C7.33334 8.13542 6.8389 8.33473 6.25001 8.33334H2.08334ZM12.5 8.33334C11.9097 8.33334 11.4146 8.13334 11.0146 7.73334C10.6146 7.33334 10.4153 6.8389 10.4167 6.25001V2.08334C10.4167 1.49306 10.6167 0.997924 11.0167 0.597924C11.4167 0.197924 11.9111 -0.00138168 12.5 7.20875e-06H35.4167C36.007 7.20875e-06 36.5021 0.200007 36.9021 0.600007C37.3021 1.00001 37.5014 1.49445 37.5 2.08334V6.25001C37.5 6.84028 37.3 7.33542 36.9 7.73542C36.5 8.13542 36.0056 8.33473 35.4167 8.33334H12.5ZM12.5 18.75C11.9097 18.75 11.4146 18.55 11.0146 18.15C10.6146 17.75 10.4153 17.2556 10.4167 16.6667V12.5C10.4167 11.9097 10.6167 11.4146 11.0167 11.0146C11.4167 10.6146 11.9111 10.4153 12.5 10.4167H35.4167C36.007 10.4167 36.5021 10.6167 36.9021 11.0167C37.3021 11.4167 37.5014 11.9111 37.5 12.5V16.6667C37.5 17.257 37.3 17.7521 36.9 18.1521C36.5 18.5521 36.0056 18.7514 35.4167 18.75H12.5ZM2.08334 18.75C1.49306 18.75 0.997924 18.55 0.597924 18.15C0.197924 17.75 -0.00138168 17.2556 7.20877e-06 16.6667V12.5C7.20877e-06 11.9097 0.200007 11.4146 0.600007 11.0146C1.00001 10.6146 1.49445 10.4153 2.08334 10.4167H6.25001C6.84028 10.4167 7.33542 10.6167 7.73542 11.0167C8.13542 11.4167 8.33473 11.9111 8.33334 12.5V16.6667C8.33334 17.257 8.13334 17.7521 7.73334 18.1521C7.33334 18.5521 6.8389 18.7514 6.25001 18.75H2.08334ZM12.5 29.1667C11.9097 29.1667 11.4146 28.9667 11.0146 28.5667C10.6146 28.1667 10.4153 27.6722 10.4167 27.0833V22.9167C10.4167 22.3264 10.6167 21.8313 11.0167 21.4313C11.4167 21.0313 11.9111 20.832 12.5 20.8333H35.4167C36.007 20.8333 36.5021 21.0333 36.9021 21.4333C37.3021 21.8333 37.5014 22.3278 37.5 22.9167V27.0833C37.5 27.6736 37.3 28.1688 36.9 28.5688C36.5 28.9688 36.0056 29.1681 35.4167 29.1667H12.5ZM2.08334 29.1667C1.49306 29.1667 0.997924 28.9667 0.597924 28.5667C0.197924 28.1667 -0.00138168 27.6722 7.20877e-06 27.0833V22.9167C7.20877e-06 22.3264 0.200007 21.8313 0.600007 21.4313C1.00001 21.0313 1.49445 20.832 2.08334 20.8333H6.25001C6.84028 20.8333 7.33542 21.0333 7.73542 21.4333C8.13542 21.8333 8.33473 22.3278 8.33334 22.9167V27.0833C8.33334 27.6736 8.13334 28.1688 7.73334 28.5688C7.33334 28.9688 6.8389 29.1681 6.25001 29.1667H2.08334Z" fill="black"/>
</svg>
