<svg width="42" height="42" viewBox="0 0 42 42" fill="none" xmlns="http://www.w3.org/2000/svg">
<path d="M15.0521 21.7187L18.0729 25.8333C18.2812 26.1111 18.559 26.25 18.9062 26.25C19.2535 26.25 19.5313 26.1111 19.7396 25.8333L22.7604 21.7187L25.7292 25.8333C25.9375 26.1111 26.2243 26.25 26.5896 26.25C26.9549 26.25 27.241 26.1111 27.4479 25.8333L32.1354 19.4271C32.4826 18.941 32.6132 18.4201 32.5271 17.8646C32.441 17.309 32.1542 16.8576 31.6667 16.5104C31.1806 16.1632 30.6597 16.0326 30.1042 16.1188C29.5486 16.2049 29.0972 16.4917 28.75 16.9792L26.5625 19.9479L23.5937 15.8333C23.3854 15.5556 23.0986 15.4167 22.7333 15.4167C22.3681 15.4167 22.0819 15.5556 21.875 15.8333L18.9062 19.9479L15.8854 15.8333C15.6771 15.5556 15.3993 15.4167 15.0521 15.4167C14.7049 15.4167 14.4271 15.5556 14.2187 15.8333L9.53125 22.2396C9.18403 22.7257 9.05347 23.2465 9.13958 23.8021C9.22569 24.3576 9.5125 24.809 10 25.1562C10.4861 25.5035 11.0069 25.634 11.5625 25.5479C12.1181 25.4618 12.5694 25.175 12.9167 24.6875L15.0521 21.7187ZM20.8333 41.6667C17.9514 41.6667 15.2431 41.1194 12.7083 40.025C10.1736 38.9306 7.96875 37.4465 6.09375 35.5729C4.21875 33.6979 2.73472 31.4931 1.64167 28.9583C0.548611 26.4236 0.00138889 23.7153 0 20.8333C0 17.9514 0.547222 15.2431 1.64167 12.7083C2.73611 10.1736 4.22014 7.96875 6.09375 6.09375C7.96875 4.21875 10.1736 2.73472 12.7083 1.64167C15.2431 0.548611 17.9514 0.00138889 20.8333 0C23.7153 0 26.4236 0.547222 28.9583 1.64167C31.4931 2.73611 33.6979 4.22014 35.5729 6.09375C37.4479 7.96875 38.9326 10.1736 40.0271 12.7083C41.1215 15.2431 41.6681 17.9514 41.6667 20.8333C41.6667 23.7153 41.1194 26.4236 40.025 28.9583C38.9306 31.4931 37.4465 33.6979 35.5729 35.5729C33.6979 37.4479 31.4931 38.9326 28.9583 40.0271C26.4236 41.1215 23.7153 41.6681 20.8333 41.6667ZM20.8333 37.5C25.4861 37.5 29.4271 35.8854 32.6562 32.6562C35.8854 29.4271 37.5 25.4861 37.5 20.8333C37.5 16.1806 35.8854 12.2396 32.6562 9.01042C29.4271 5.78125 25.4861 4.16667 20.8333 4.16667C16.1806 4.16667 12.2396 5.78125 9.01042 9.01042C5.78125 12.2396 4.16667 16.1806 4.16667 20.8333C4.16667 25.4861 5.78125 29.4271 9.01042 32.6562C12.2396 35.8854 16.1806 37.5 20.8333 37.5Z" fill="black"/>
</svg>
