<svg width="50" height="50" viewBox="0 0 50 50" fill="none" xmlns="http://www.w3.org/2000/svg">
<path d="M10.4167 45.8333C9.27083 45.8333 8.28958 45.4257 7.47292 44.6104C6.65764 43.7937 6.25 42.8125 6.25 41.6666V12.5C6.25 11.3541 6.65764 10.3736 7.47292 9.55829C8.28958 8.74163 9.27083 8.33329 10.4167 8.33329H12.5V6.24996C12.5 5.65968 12.6993 5.16454 13.0979 4.76454C13.4979 4.36593 13.9931 4.16663 14.5833 4.16663C15.1736 4.16663 15.6687 4.36593 16.0687 4.76454C16.4674 5.16454 16.6667 5.65968 16.6667 6.24996V8.33329H33.3333V6.24996C33.3333 5.65968 33.5333 5.16454 33.9333 4.76454C34.3319 4.36593 34.8264 4.16663 35.4167 4.16663C36.0069 4.16663 36.5014 4.36593 36.9 4.76454C37.3 5.16454 37.5 5.65968 37.5 6.24996V8.33329H39.5833C40.7292 8.33329 41.7104 8.74163 42.5271 9.55829C43.3424 10.3736 43.75 11.3541 43.75 12.5V25H39.5833V20.8333H10.4167V41.6666H25V45.8333H10.4167ZM10.4167 16.6666H39.5833V12.5H10.4167V16.6666ZM46.0937 35.4166L41.6667 30.9895L43.1771 29.4791C43.559 29.0972 44.0451 28.9062 44.6354 28.9062C45.2257 28.9062 45.7118 29.0972 46.0937 29.4791L47.6042 30.9895C47.9861 31.3715 48.1771 31.8576 48.1771 32.4479C48.1771 33.0382 47.9861 33.5243 47.6042 33.9062L46.0937 35.4166ZM29.1667 46.875V44.375C29.1667 44.0972 29.2187 43.8284 29.3229 43.5687C29.4271 43.3076 29.5833 43.0729 29.7917 42.8645L40.2083 32.4479L44.6354 36.875L34.2187 47.2916C34.0104 47.5 33.7764 47.6562 33.5167 47.7604C33.2556 47.8645 32.9861 47.9166 32.7083 47.9166H30.2083C29.9306 47.9166 29.6875 47.8125 29.4792 47.6041C29.2708 47.3958 29.1667 47.1527 29.1667 46.875Z" fill="black"/>
</svg>
