<svg width="42" height="42" viewBox="0 0 42 42" fill="none" xmlns="http://www.w3.org/2000/svg">
<path d="M16.8334 30.375L29.3334 21L16.8334 11.625V30.375ZM21 0.166626C9.50002 0.166626 0.166687 9.49996 0.166687 21C0.166687 32.5 9.50002 41.8333 21 41.8333C32.5 41.8333 41.8334 32.5 41.8334 21C41.8334 9.49996 32.5 0.166626 21 0.166626ZM21 37.6666C11.8125 37.6666 4.33335 30.1875 4.33335 21C4.33335 11.8125 11.8125 4.33329 21 4.33329C30.1875 4.33329 37.6667 11.8125 37.6667 21C37.6667 30.1875 30.1875 37.6666 21 37.6666Z" fill="black"/>
</svg>
