<svg width="38" height="40" viewBox="0 0 38 40" fill="none" xmlns="http://www.w3.org/2000/svg">
<path d="M10.1458 17.875C10.8365 17.875 11.4989 18.1494 11.9873 18.6378C12.4756 19.1261 12.75 19.7885 12.75 20.4792C12.75 21.1699 12.4756 21.8322 11.9873 22.3206C11.4989 22.809 10.8365 23.0833 10.1458 23.0833C9.45517 23.0833 8.79279 22.809 8.30441 22.3206C7.81603 21.8322 7.54167 21.1699 7.54167 20.4792C7.54167 19.7885 7.81603 19.1261 8.30441 18.6378C8.79279 18.1494 9.45517 17.875 10.1458 17.875ZM19 17.875C19.6907 17.875 20.353 18.1494 20.8414 18.6378C21.3298 19.1261 21.6042 19.7885 21.6042 20.4792C21.6042 21.1699 21.3298 21.8322 20.8414 22.3206C20.353 22.809 19.6907 23.0833 19 23.0833C18.3093 23.0833 17.647 22.809 17.1586 22.3206C16.6702 21.8322 16.3958 21.1699 16.3958 20.4792C16.3958 19.7885 16.6702 19.1261 17.1586 18.6378C17.647 18.1494 18.3093 17.875 19 17.875ZM30.4583 20.4792C30.4583 19.7885 30.184 19.1261 29.6956 18.6378C29.2072 18.1494 28.5448 17.875 27.8542 17.875C27.1635 17.875 26.5011 18.1494 26.0127 18.6378C25.5244 19.1261 25.25 19.7885 25.25 20.4792C25.25 21.1699 25.5244 21.8322 26.0127 22.3206C26.5011 22.809 27.1635 23.0833 27.8542 23.0833C28.5448 23.0833 29.2072 22.809 29.6956 22.3206C30.184 21.8322 30.4583 21.1699 30.4583 20.4792ZM12.75 28.8125C12.75 28.1218 12.4756 27.4595 11.9873 26.9711C11.4989 26.4827 10.8365 26.2083 10.1458 26.2083C9.45517 26.2083 8.79279 26.4827 8.30441 26.9711C7.81603 27.4595 7.54167 28.1218 7.54167 28.8125C7.54167 29.5032 7.81603 30.1656 8.30441 30.6539C8.79279 31.1423 9.45517 31.4167 10.1458 31.4167C10.8365 31.4167 11.4989 31.1423 11.9873 30.6539C12.4756 30.1656 12.75 29.5032 12.75 28.8125ZM21.6042 28.8125C21.6042 28.1218 21.3298 27.4595 20.8414 26.9711C20.353 26.4827 19.6907 26.2083 19 26.2083C18.3093 26.2083 17.647 26.4827 17.1586 26.9711C16.6702 27.4595 16.3958 28.1218 16.3958 28.8125C16.3958 29.5032 16.6702 30.1656 17.1586 30.6539C17.647 31.1423 18.3093 31.4167 19 31.4167C19.6907 31.4167 20.353 31.1423 20.8414 30.6539C21.3298 30.1656 21.6042 29.5032 21.6042 28.8125ZM27.8542 26.2083C28.5448 26.2083 29.2072 26.4827 29.6956 26.9711C30.184 27.4595 30.4583 28.1218 30.4583 28.8125C30.4583 29.5032 30.184 30.1656 29.6956 30.6539C29.2072 31.1423 28.5448 31.4167 27.8542 31.4167C27.1635 31.4167 26.5011 31.1423 26.0127 30.6539C25.5244 30.1656 25.25 29.5032 25.25 28.8125C25.25 28.1218 25.5244 27.4595 26.0127 26.9711C26.5011 26.4827 27.1635 26.2083 27.8542 26.2083ZM15.9521 1.27918C16.7974 0.564503 17.8683 0.172028 18.9753 0.171266C20.0822 0.170503 21.1537 0.561502 22 1.27502L36.0833 13.15C37.1396 14.0396 37.75 15.35 37.75 16.7333V36.1042C37.75 37.0711 37.3659 37.9984 36.6822 38.6822C35.9984 39.3659 35.0711 39.75 34.1042 39.75H3.89583C2.9289 39.75 2.00157 39.3659 1.31784 38.6822C0.634114 37.9984 0.25 37.0711 0.25 36.1042V16.7292C0.25 15.35 0.858333 14.0417 1.91042 13.15L15.9521 1.27918ZM19.9854 3.6646C19.7034 3.42638 19.3462 3.29569 18.9771 3.29569C18.6079 3.29569 18.2507 3.42638 17.9687 3.6646L3.92708 15.5354C3.75382 15.6823 3.61467 15.8652 3.51932 16.0714C3.42397 16.2776 3.37472 16.502 3.375 16.7292V36.1042C3.375 36.3917 3.60833 36.625 3.89583 36.625H34.1042C34.2423 36.625 34.3748 36.5701 34.4725 36.4725C34.5701 36.3748 34.625 36.2423 34.625 36.1042V16.7313C34.6248 16.5038 34.5749 16.2791 34.4788 16.0729C34.3827 15.8667 34.2428 15.684 34.0687 15.5375L19.9854 3.6646Z" fill="black"/>
</svg>
